<svg width="55" height="19" viewBox="0 0 55 19" fill="none" xmlns="http://www.w3.org/2000/svg">
<path d="M7.23298 7.6131C7.23298 7.5211 7.23298 7.4741 7.24098 7.4361C7.25625 7.36174 7.29301 7.29349 7.34669 7.23981C7.40037 7.18613 7.46862 7.14937 7.54298 7.1341C7.58198 7.1261 7.62798 7.1261 7.72098 7.1261C8.70798 7.1261 9.20198 7.1261 9.61198 7.2101C10.4051 7.37248 11.133 7.7642 11.7054 8.33663C12.2779 8.90907 12.6696 9.63701 12.832 10.4301C12.917 10.8401 12.917 11.3351 12.917 12.3221V13.2971C12.917 14.2851 12.917 14.7781 12.833 15.1891C12.6706 15.9822 12.2789 16.7101 11.7064 17.2826C11.134 17.855 10.4061 18.2467 9.61298 18.4091C9.20298 18.4931 8.70798 18.4931 7.71998 18.4931C7.62798 18.4931 7.58198 18.4931 7.54298 18.4851C7.46856 18.4699 7.40025 18.4332 7.34655 18.3795C7.29285 18.3258 7.25613 18.2575 7.24098 18.1831C7.23298 18.1451 7.23298 18.0981 7.23298 18.0061V7.6131Z" fill="white"/>
<path d="M5.60003 4.30507C5.68403 4.71607 5.68403 5.20907 5.68403 6.19707V14.7221C5.68403 14.8151 5.68403 14.8611 5.67603 14.8991C5.66088 14.9735 5.62416 15.0418 5.57046 15.0955C5.51676 15.1492 5.44845 15.1859 5.37403 15.2011C5.33603 15.2091 5.28904 15.2091 5.19706 15.2091H5.19703C4.20903 15.2091 3.71503 15.2091 3.30503 15.1251C2.51194 14.9627 1.784 14.571 1.21156 13.9985C0.639127 13.4261 0.247408 12.6982 0.0850286 11.9051C0.00102901 11.4951 0.00102901 11.0011 0.00102901 10.0131V10.0131V1.48807C-0.00169277 1.42895 0.000984192 1.36971 0.00902843 1.31107C0.0400286 1.15907 0.158029 1.04007 0.310029 1.00907C0.368991 1.00095 0.428576 0.998274 0.488029 1.00107H0.488041C1.47603 1.00107 1.97003 1.00107 2.38003 1.08507C3.17312 1.24745 3.90106 1.63917 4.4735 2.21161C5.04593 2.78404 5.43765 3.51198 5.60003 4.30507Z" fill="white"/>
<path d="M22.14 16H19.3V0.999989H22.14V16Z" fill="white"/>
<path d="M31.8692 15.12C31.0692 15.8667 29.8825 16.24 28.3092 16.24C26.7359 16.24 25.5492 15.8667 24.7492 15.12C23.9492 14.3733 23.5492 13.1733 23.5492 11.52V5.51999H26.3892V11.56C26.3892 12.9867 27.0292 13.7 28.3092 13.7C29.5892 13.7 30.2292 12.9867 30.2292 11.56V5.51999H33.0692V11.52C33.0692 13.1733 32.6692 14.3733 31.8692 15.12Z" fill="white"/>
<path d="M43.8633 10.04V16H41.0233V9.77999C41.0233 8.40666 40.4633 7.71999 39.3433 7.71999C38.6899 7.71999 38.1833 7.91999 37.8233 8.31999C37.4766 8.71999 37.3033 9.27332 37.3033 9.97999V16H34.4633V5.51999H37.0833V6.79999C37.6299 5.78666 38.6366 5.27999 40.1033 5.27999C41.4899 5.27999 42.5033 5.77332 43.1433 6.75999C44.0366 5.77332 45.1966 5.27999 46.6233 5.27999C47.8499 5.27999 48.7899 5.65999 49.4433 6.41999C50.0966 7.17999 50.4233 8.19332 50.4233 9.45999V16H47.5833V9.77999C47.5833 8.40666 47.0233 7.71999 45.9033 7.71999C45.2366 7.71999 44.7299 7.92666 44.3833 8.33999C44.0366 8.73999 43.8633 9.30666 43.8633 10.04Z" fill="white"/>
<path d="M54.4803 3.67999C54.1603 3.99999 53.747 4.15999 53.2403 4.15999C52.7336 4.15999 52.3203 3.99999 52.0003 3.67999C51.6803 3.35999 51.5203 2.95332 51.5203 2.45999C51.5203 1.96666 51.6803 1.55999 52.0003 1.23999C52.3203 0.906657 52.7336 0.73999 53.2403 0.73999C53.747 0.73999 54.1603 0.906657 54.4803 1.23999C54.8003 1.55999 54.9603 1.96666 54.9603 2.45999C54.9603 2.95332 54.8003 3.35999 54.4803 3.67999ZM51.8203 16V5.51999H54.6603V16H51.8203Z" fill="white"/>
</svg>
